<?xml version="1.0" standalone="no"?>
<!DOCTYPE svg PUBLIC "-//W3C//DTD SVG 20010904//EN"
 "http://www.w3.org/TR/2001/REC-SVG-20010904/DTD/svg10.dtd">
<svg version="1.0" xmlns="http://www.w3.org/2000/svg"
 width="260.000000pt" height="260.000000pt" viewBox="0 0 260.000000 260.000000"
 preserveAspectRatio="xMidYMid meet">
<metadata>
Created by potrace 1.14, written by Peter Selinger 2001-2017
</metadata>
<g transform="translate(0.000000,260.000000) scale(0.100000,-0.100000)"
fill="#000000" stroke="none">
<path d="M1307 2395 c-1 -1 -45 -5 -97 -9 -160 -11 -323 -42 -383 -73 -50 -25
-86 -75 -157 -218 -101 -203 -132 -311 -100 -350 7 -8 20 -15 29 -15 9 0 21
-10 26 -22 8 -19 18 -23 55 -24 36 0 70 12 170 62 199 98 315 127 528 128 152
1 165 -3 154 -48 -13 -53 -109 -158 -267 -292 -38 -32 -88 -75 -110 -93 -94
-81 -227 -226 -251 -273 -46 -92 -25 -140 102 -239 68 -52 122 -78 154 -72 14
2 43 23 65 47 63 67 186 158 305 224 316 175 468 274 572 371 185 173 235 402
124 575 -40 63 -161 165 -243 205 -114 56 -271 95 -423 107 -82 6 -249 12
-253 9z"/>
<path d="M958 788 c-37 -4 -87 -15 -110 -24 -24 -8 -52 -18 -63 -21 -38 -11
-151 -92 -182 -131 -66 -82 -83 -183 -44 -259 30 -59 149 -153 230 -180 164
-55 422 6 546 131 89 90 118 196 75 278 -22 42 -29 50 -106 117 -42 36 -126
79 -171 87 -48 9 -106 10 -175 2z"/>
</g>
</svg>
